<svg width="59" height="60" viewBox="0 0 59 60" fill="none" xmlns="http://www.w3.org/2000/svg">
<circle cx="29.5" cy="30" r="29.5" fill="#454545"/>
<path d="M41.0643 28.5333V32.4247H18.7444V28.5333H41.0643ZM31.9843 19.0283V42.7348H27.8468V19.0283H31.9843Z" fill="#6ECFDC"/>
<path d="M41.0643 28.5333H41.3143C41.3143 28.3952 41.2023 28.2833 41.0643 28.2833V28.5333ZM41.0643 32.4247V32.6747C41.2023 32.6747 41.3143 32.5628 41.3143 32.4247H41.0643ZM18.7444 32.4247H18.4944C18.4944 32.5628 18.6064 32.6747 18.7444 32.6747V32.4247ZM18.7444 28.5333V28.2833C18.6064 28.2833 18.4944 28.3952 18.4944 28.5333H18.7444ZM31.9843 19.0283H32.2343C32.2343 18.8903 32.1223 18.7783 31.9843 18.7783V19.0283ZM31.9843 42.7348V42.9848C32.1223 42.9848 32.2343 42.8728 32.2343 42.7348H31.9843ZM27.8468 42.7348H27.5968C27.5968 42.8728 27.7087 42.9848 27.8468 42.9848V42.7348ZM27.8468 19.0283V18.7783C27.7087 18.7783 27.5968 18.8903 27.5968 19.0283H27.8468ZM40.8143 28.5333V32.4247H41.3143V28.5333H40.8143ZM41.0643 32.1747H18.7444V32.6747H41.0643V32.1747ZM18.9944 32.4247V28.5333H18.4944V32.4247H18.9944ZM18.7444 28.7833H41.0643V28.2833H18.7444V28.7833ZM31.7343 19.0283V42.7348H32.2343V19.0283H31.7343ZM31.9843 42.4848H27.8468V42.9848H31.9843V42.4848ZM28.0968 42.7348V19.0283H27.5968V42.7348H28.0968ZM27.8468 19.2783H31.9843V18.7783H27.8468V19.2783Z" fill="#6ECFDC"/>
</svg>
